<?xml version="1.0" encoding="utf-8"?>
<!-- Generator: Adobe Illustrator 16.0.0, SVG Export Plug-In . SVG Version: 6.00 Build 0)  -->
<!DOCTYPE svg PUBLIC "-//W3C//DTD SVG 1.1//EN" "http://www.w3.org/Graphics/SVG/1.1/DTD/svg11.dtd">
<svg version="1.1" id="Capa_1" xmlns="http://www.w3.org/2000/svg" xmlns:xlink="http://www.w3.org/1999/xlink" x="0px" y="0px"
	 width="44px" height="44px" viewBox="0 0 512 512" enable-background="new 0 0 512 512" xml:space="preserve">
<g>
	<path fill="#CCCCCC" d="M400.675,103.875l-54.083,24.946l55.519,80.42c3.004,4.352,5.071,8.281,6.319,12.012
		c2.712,8.1,1.036,14.078-0.848,17.667c-3.433,6.542-10.22,10.448-18.154,10.448c-5.1,0-10.834-1.564-17.531-4.783l-123.504-59.353
		l-114.804,58.552c-6.792,3.464-12.669,5.148-17.968,5.148c-7.784,0-14.554-3.796-18.109-10.155
		c-1.929-3.45-3.774-9.246-1.611-17.261c1.039-3.851,2.891-7.913,5.66-12.417l49.709-80.844l-42.136-22.883
		C43.189,145.803,0,212.639,0,288.338C0,411.804,114.632,511.95,255.996,511.95C397.368,511.95,512,411.804,512,288.338
		C511.992,211.75,467.895,144.163,400.675,103.875z"/>
	<path fill="#CCCCCC" d="M307.307,58.729l-34.05-48.468c-4.778-6.802-11.132-10.213-17.512-10.213
		c-6.223,0-12.471,3.246-17.304,9.755l-36.114,48.639l-88.757,11.2c-16.292,2.056-17.8,10.075-3.371,17.912L125.75,96l48.224,26.19
		l-58.644,95.375c-5.956,9.687-5.445,15.202,0.289,15.202c2.547,0,6.125-1.088,10.624-3.382l121.936-62.189L378.9,230.015
		c4.5,2.163,8.041,3.188,10.529,3.188c5.692,0,5.868-5.374-0.623-14.777l-66.435-96.235l60.672-27.986l18.182-8.387
		c14.911-6.878,13.783-14.053-2.518-16.026L307.307,58.729z"/>
</g>
</svg>
